<svg version="1.2" xmlns="http://www.w3.org/2000/svg" viewBox="0 0 375 375" width="375" height="375">
	<title>upload-sign</title>
	<style>
		.s0 { fill: #ffffff } 
	</style>
	<path id="Layer 1" fill-rule="evenodd" class="s0" d="m49.6 163.1c-11.9-4.1-18.2-16.9-14-28.6 7.8-21.4 20.4-41.5 37.9-58.6 62.7-61.2 164.4-61.2 227.1 0l12.6 12.3v-35.8c0-12.4 10.2-22.4 22.9-22.4 12.7 0 23 10 23 22.4v89.6c0 12.3-10.3 22.3-23 22.3h-91.7c-12.7 0-22.9-10-22.9-22.3 0-12.4 10.2-22.4 22.9-22.4h36.1l-12.3-12.1c-44.8-43.7-117.4-43.7-162.2 0-12.6 12.3-21.6 26.6-27.1 41.9-4.3 11.7-17.4 17.8-29.3 13.7zm-14.8 46.2q1.7-0.2 3.4-0.2h91.5c12.7 0 23 10 23 22.4 0 12.4-10.3 22.4-23 22.4h-36.1l12.2 12h0.1c44.8 43.8 117.4 43.8 162.2 0 12.7-12.2 21.6-26.5 27.1-41.8 4.3-11.6 17.4-17.8 29.3-13.6 11.9 4.1 18.2 16.8 14 28.5-7.8 21.4-20.5 41.5-37.9 58.6-62.7 61.1-164.4 61.1-227.1 0l-12.6-12.3v35.8c0 12.4-10.3 22.4-23 22.4-12.6 0-22.9-10-22.9-22.4v-89.3c0-1.2 0.1-2.4 0.3-3.6 0.1-0.9 0.3-1.8 0.6-2.6 1-3.7 2.9-7 5.8-9.8 2.8-2.8 6.2-4.7 9.8-5.8 1.1-0.3 2.1-0.5 3.3-0.7z"/>
</svg>