<svg version="1.2" xmlns="http://www.w3.org/2000/svg" viewBox="0 0 375 375" width="375" height="375"><style>.a{fill:#fff}</style><path class="a" d="m344.1 207.5c-16.6 0-30 13.4-30 30v76.6h-254v-76.6c0-16.6-13.5-30-30-30-16.6 0-30 13.4-30 30v106.6c0 16.6 13.4 30 30 30h314c16.5 0 30-13.4 30-30v-106.6c0-16.6-13.5-30-30-30z"/><path class="a" d="m123.6 135.9l33.5-33.5v111.8c0 16.6 13.4 30 30 30 16.5 0 30-13.4 30-30v-111.8l33.4 33.5c5.9 5.9 13.6 8.8 21.3 8.8 7.6 0 15.3-2.9 21.2-8.8 11.7-11.7 11.7-30.7 0-42.4l-84.7-84.7c-11.7-11.7-30.7-11.7-42.5 0l-84.7 84.7c-11.7 11.7-11.7 30.7 0 42.4 11.8 11.7 30.8 11.7 42.5 0z"/></svg>