<svg version="1.2" xmlns="http://www.w3.org/2000/svg" viewBox="0 0 128 128" width="128" height="128"><style>.a{fill:#fff}</style><path class="a" d="m126.7 98.4c-4.6 1.2-7.4 0.1-9.9-3.7-5.7-8.5-12-16.6-18-24.9-0.8-1.1-1.6-2.1-2.6-3.5-7.2 9.7-14.4 18.9-21.1 28.5-2.4 3.4-4.9 4.9-9.4 3.7l27-36.2-25.1-32.6c4.3-0.8 7.3-0.4 9.9 3.5 5.9 8.5 12.3 16.6 18.7 25.2 6.5-8.6 12.8-16.7 18.8-25.1 2.4-3.5 5-4.8 9.3-3.5-3.3 4.4-6.5 8.6-9.7 12.9-4.4 5.7-8.6 11.5-13.1 17.1-1.7 2-1.4 3.3 0 5.2 8.4 11 16.7 22.1 25.2 33.4zm-125.4-36.7c0.8-3.6 1.2-7.2 2.2-10.8 6-21.4 30.6-30.3 47.5-17 9.9 7.7 12.4 18.7 11.9 31.1h-55.8c-0.8 22.2 15.2 35.6 35.5 28.8 7.2-2.4 11.4-8 13.5-15 1.1-3.5 2.8-4.1 6.1-3.1-1.6 8.8-5.5 16.1-13.5 20.7-12 6.8-29.1 4.6-38.1-4.9-5.3-5.6-7.6-12.6-8.6-20.1-0.1-1.2-0.5-2.4-0.7-3.6q0-3 0-6.1zm5.9-1.4h50.4c-0.3-16.1-10.3-27.5-24-27.6-15-0.1-25.8 11-26.4 27.6z"/></svg>