<svg xmlns="http://www.w3.org/2000/svg" version="1.1" xmlns:xlink="http://www.w3.org/1999/xlink" xmlns:svgjs="http://svgjs.dev/svgjs" width="1000" height="1000"><svg id="SvgjsSvg1165" xmlns="http://www.w3.org/2000/svg" viewBox="0 0 1000 1000">
  <defs>
    <style>
      .cls-1 {
        fill: #fff;
      }
    </style>
  </defs>
  <path class="cls-1" d="M500,100c54.04,0,106.42,10.56,155.67,31.39,47.62,20.14,90.41,49,127.18,85.76,36.77,36.77,65.62,79.56,85.76,127.18,20.83,49.25,31.39,101.62,31.39,155.67s-10.56,106.42-31.39,155.67c-20.14,47.62-49,90.41-85.76,127.18s-79.56,65.62-127.18,85.76c-49.25,20.83-101.62,31.39-155.67,31.39s-106.42-10.56-155.67-31.39c-47.62-20.14-90.41-49-127.18-85.76-36.77-36.77-65.62-79.56-85.76-127.18-20.83-49.25-31.39-101.62-31.39-155.67s10.56-106.42,31.39-155.67c20.14-47.62,49-90.41,85.76-127.18,36.77-36.77,79.56-65.62,127.18-85.76,49.25-20.83,101.62-31.39,155.67-31.39M500,0C223.86,0,0,223.86,0,500s223.86,500,500,500,500-223.86,500-500S776.14,0,500,0h0Z"></path>
</svg><style>@media (prefers-color-scheme: light) { :root { filter: contrast(1) brightness(0.1); } }
@media (prefers-color-scheme: dark) { :root { filter: contrast(0.3846153846153846) brightness(4.5); } }
</style></svg>