<svg version="1.2" xmlns="http://www.w3.org/2000/svg" viewBox="0 0 128 128" width="128" height="128"><style>.a{fill:#fff}</style><path fill-rule="evenodd" class="a" d="m64 5.1c-33.3 0-60.4 27-60.4 60.4 0 26.7 17.3 49.3 41.3 57.3 3 0.6 4.1-1.3 4.1-2.9 0-1.5 0-6.2 0-11.3-16.8 3.7-20.4-7.1-20.4-7.1-2.7-7-6.7-8.8-6.7-8.8-5.5-3.8 0.4-3.7 0.4-3.7 6.1 0.4 9.3 6.2 9.3 6.2 5.4 9.3 14.1 6.6 17.5 5.1 0.6-3.9 2.2-6.6 3.9-8.1-13.4-1.5-27.5-6.7-27.5-29.9 0-6.6 2.3-11.9 6.2-16.2-0.6-1.5-2.7-7.6 0.6-16 0 0 5-1.6 16.6 6.2 4.8-1.3 10-2 15.1-2 5.1 0 10.3 0.7 15.1 2 11.6-7.8 16.6-6.2 16.6-6.2 3.3 8.4 1.2 14.5 0.6 16 3.9 4.3 6.2 9.6 6.2 16.2 0 23.2-14.1 28.3-27.5 29.8 2.1 1.9 4 5.6 4 11.2 0 8.1 0 14.6 0 16.6 0 1.6 1.1 3.5 4.1 2.9 24-8 41.3-30.6 41.3-57.3 0-33.4-27.1-60.4-60.4-60.4z"/><path class="a" d="m26.5 91.8c-0.1 0.3-0.6 0.4-1.1 0.2-0.4-0.2-0.6-0.6-0.5-0.9 0.1-0.3 0.6-0.4 1-0.2 0.5 0.2 0.7 0.6 0.6 0.9zm2.4 2.7c-0.3 0.3-0.8 0.2-1.2-0.2-0.4-0.5-0.5-1-0.2-1.3 0.3-0.3 0.9-0.1 1.3 0.3 0.4 0.4 0.4 1 0.1 1.2zm2.4 3.5c-0.4 0.3-1 0-1.3-0.5-0.4-0.5-0.4-1.2 0-1.4 0.3-0.3 0.9-0.1 1.3 0.5 0.4 0.5 0.4 1.1 0 1.4zm3.3 3.4c-0.4 0.3-1.1 0.2-1.6-0.3-0.5-0.4-0.7-1.1-0.3-1.5 0.3-0.4 1-0.3 1.5 0.2 0.6 0.5 0.7 1.2 0.4 1.6zm4.5 1.9c-0.2 0.5-0.9 0.7-1.5 0.5-0.7-0.2-1.2-0.8-1-1.2 0.1-0.5 0.8-0.7 1.5-0.5 0.7 0.2 1.1 0.7 1 1.2zm4.9 0.4c0 0.5-0.5 0.9-1.3 0.9-0.7 0-1.3-0.4-1.3-0.9 0-0.5 0.6-0.9 1.3-0.9 0.7 0 1.3 0.4 1.3 0.9zm4.6-0.8c0.1 0.5-0.4 1-1.1 1.1-0.7 0.2-1.4-0.2-1.5-0.6 0-0.5 0.5-1 1.2-1.2 0.7-0.1 1.3 0.2 1.4 0.7z"/></svg>