<svg version="1.2" xmlns="http://www.w3.org/2000/svg" viewBox="0 0 128 128" width="128" height="128"><style>.a{fill:#fff}</style><path class="a" d="m64 0c-35.3 0-64 28.7-64 64 0 35.2 28.7 63.9 64 63.9 35.2 0 63.9-28.7 63.9-63.9 0-35.3-28.7-64-63.9-64zm0 10.7c29.4 0 53.2 23.8 53.2 53.3 0 29.4-23.8 53.2-53.2 53.2-29.5 0-53.3-23.8-53.3-53.2 0-29.5 23.8-53.3 53.3-53.3z"/><path fill-rule="evenodd" class="a" d="m67.7 60.8c7.5-11.6 15.2-22.9 22.7-34.5-14.3 11.1-28 23-42 34.4 6.4 0.1 12.8 0.1 19.3 0.1zm-30.2 40.8c14.3-11.1 28-23 42.1-34.4-6.5-0.1-12.9-0.1-19.4-0.1-7.5 11.5-15.2 22.9-22.7 34.5z"/></svg>